<svg version="1.1" id="Layer_1" xmlns="http://www.w3.org/2000/svg" xmlns:xlink="http://www.w3.org/1999/xlink" x="0px" y="0px"
	 width="100%" viewBox="0 0 960 960" enable-background="new 0 0 960 960" xml:space="preserve">
<path fill="#FFFFFF" opacity="1.000000" stroke="none" 
	d="
M531.000000,961.000000 
	C354.000000,961.000000 177.500000,961.000000 1.000000,961.000000 
	C1.000000,641.000000 1.000000,321.000000 1.000000,1.000000 
	C321.000000,1.000000 641.000000,1.000000 961.000000,1.000000 
	C961.000000,321.000000 961.000000,641.000000 961.000000,961.000000 
	C817.833313,961.000000 674.666687,961.000000 531.000000,961.000000 
M581.986633,814.968689 
	C581.986633,814.968689 581.736694,814.719299 582.527283,814.882812 
	C586.813171,813.849487 592.627625,806.141418 593.000000,801.000000 
	C593.000000,801.000000 593.001282,800.997559 593.774048,801.003479 
	C594.904602,800.498901 596.562439,800.307251 597.078369,799.437927 
	C599.973816,794.559082 602.739807,789.588989 605.254639,784.503967 
	C606.827942,781.322449 607.840881,777.867493 609.178284,774.564819 
	C611.068909,769.895874 613.771240,765.413086 614.804443,760.568787 
	C617.090210,749.850586 618.551270,738.956604 620.630432,726.438477 
	C626.236694,729.522156 629.911438,732.489746 634.085571,733.631531 
	C641.540222,735.670776 649.296143,736.608276 656.984680,737.977112 
	C656.984680,737.977112 657.016663,738.034180 657.180542,738.803406 
	C661.781677,739.217712 666.382874,739.632019 671.652466,739.951050 
	C672.086792,740.049927 672.521057,740.148743 673.187561,741.001221 
	C673.419983,741.229919 673.638489,741.642029 673.886963,741.660950 
	C687.067322,742.665710 700.241638,742.730591 713.339844,740.776001 
	C714.392456,740.618896 715.158752,738.542847 716.686462,737.117981 
	C717.132385,737.099304 717.578247,737.080627 718.532471,737.585510 
	C721.405762,737.314087 724.571716,737.709656 727.081116,736.608765 
	C730.511353,735.104004 735.209290,735.453430 737.000000,731.000000 
	C737.000000,731.000000 736.970398,730.975220 737.845581,731.030945 
	C742.087158,731.808228 745.170959,729.714844 748.518677,727.419495 
	C752.606201,724.616760 757.213623,722.535461 761.716064,720.394165 
	C763.357544,719.613403 765.343079,719.556091 766.681152,719.272644 
	C767.486267,717.093750 768.240906,715.051392 768.998901,712.997559 
	C768.998901,712.997559 769.011475,712.997253 769.808594,713.029358 
	C772.228333,711.616577 774.901672,710.504150 777.010742,708.723389 
	C780.532288,705.750061 783.661438,702.315857 787.019287,699.142883 
	C788.604736,697.644775 790.671570,696.550720 791.940552,694.842834 
	C795.705750,689.775330 798.697937,684.051941 802.913818,679.424561 
	C806.847778,675.106750 808.332153,670.324341 808.979492,664.997559 
	C808.979492,664.997559 808.876831,664.892700 809.582336,664.871582 
	C816.700684,658.472046 817.222839,649.732178 817.988159,641.028442 
	C817.988159,641.028442 818.049927,640.996948 818.836914,640.974670 
	C819.886963,638.460083 821.590149,636.013794 821.861572,633.417786 
	C822.603333,626.322754 822.741699,619.164612 823.017883,611.236023 
	C823.095947,610.172791 823.174072,609.109497 823.993591,607.797058 
	C826.707886,595.156738 823.424927,582.823486 821.754028,570.465332 
	C821.136475,565.897583 818.739807,561.535522 816.933533,557.171082 
	C813.974121,550.020508 811.194763,542.758911 807.660706,535.893555 
	C804.604797,529.956909 800.682434,524.453979 796.938599,518.897156 
	C796.385376,518.076111 794.703430,518.015503 793.494629,517.489502 
	C793.494629,517.489502 793.387817,517.426819 793.736450,516.688049 
	C793.349426,515.492737 793.301575,513.975891 792.521545,513.153137 
	C786.399719,506.696442 780.560791,499.864838 773.760071,494.198456 
	C769.686462,490.804260 764.041443,489.296143 759.037048,486.989166 
	C759.037048,486.989166 759.044250,486.907654 758.946960,486.259460 
	C758.263794,485.428406 757.580627,484.597351 757.332031,483.261566 
	C797.433350,457.904175 819.566406,421.250031 822.618958,374.244598 
	C825.495667,329.948486 809.804199,292.107574 776.126953,262.819916 
	C739.566895,231.025208 697.029114,221.922302 650.288513,233.448807 
	C639.142822,236.197418 628.680847,241.718475 617.857422,245.091171 
	C617.565735,242.113556 617.246521,239.138321 616.986328,236.157944 
	C613.361755,194.639130 594.710999,161.194412 561.356201,136.621216 
	C525.965088,110.547844 486.199921,103.834305 443.839142,114.801849 
	C415.134399,122.233757 391.481323,138.269745 372.932495,161.404709 
	C353.228027,185.981064 343.376190,214.270554 341.887939,245.743881 
	C340.384857,245.084061 338.828552,244.523285 337.386810,243.749237 
	C321.155975,235.035309 303.671112,230.230728 285.463043,229.082474 
	C242.406723,226.367218 205.223083,239.967316 175.119354,271.285614 
	C150.534790,296.862122 138.110489,327.730713 137.226700,363.068787 
	C136.494370,392.351379 144.637802,419.307129 161.009521,443.552399 
	C172.013687,459.848755 185.908936,473.329407 203.284195,483.643646 
	C203.315872,484.437653 203.347549,485.231689 202.708405,486.281372 
	C183.754578,497.615417 168.636139,512.828552 157.398331,531.785645 
	C135.188156,569.252075 130.835800,608.947449 145.402130,649.851196 
	C158.595139,686.898438 183.912460,713.571411 220.164917,729.303833 
	C244.528625,739.876953 270.039917,744.012024 296.215973,738.759094 
	C309.622284,736.068848 322.521210,730.850037 336.437408,726.937195 
	C338.539459,727.645874 340.641479,728.354492 342.922241,729.790588 
	C342.900848,730.536560 342.879456,731.282593 342.226685,732.401489 
	C341.291809,738.993225 340.351501,745.584167 339.457275,752.181396 
	C339.437317,752.328552 339.942444,752.546936 340.202637,752.732056 
	C340.718170,753.223450 341.233704,753.714905 341.749237,754.206299 
	C341.949585,752.616882 342.149963,751.027466 342.350311,749.438049 
	C345.185333,756.349426 348.521576,762.038513 348.554230,767.746399 
	C348.588470,773.727417 352.776398,776.952942 354.360199,781.701538 
	C354.913513,783.360596 356.908661,784.538757 358.450317,786.181396 
	C358.450317,786.181396 358.463745,786.500427 357.983307,787.129639 
	C357.098785,788.537903 356.182434,789.929626 355.417328,791.399963 
	C355.376099,791.479248 356.805389,792.731323 357.211029,792.572327 
	C361.239258,790.993103 361.844635,793.935669 363.138794,796.528564 
	C363.852936,797.959412 365.573120,798.888123 367.224731,800.444885 
	C367.454010,800.736145 367.683258,801.027405 367.937561,802.017334 
	C372.223816,808.564026 375.806885,815.751404 381.010345,821.462402 
	C385.480469,826.368347 391.789337,829.605164 397.338593,833.504089 
	C397.634949,833.712341 398.427551,833.214233 399.612244,833.148254 
	C400.389679,833.841980 401.167145,834.535645 402.087311,835.869934 
	C402.822083,836.189514 403.556824,836.509155 404.669434,836.930908 
	C404.669434,836.930908 404.948639,837.205139 405.073181,837.855591 
	C405.808533,838.183289 406.543884,838.510925 407.660095,838.916199 
	C407.660095,838.916199 407.959198,839.164368 408.090057,839.821533 
	C409.277039,840.269226 410.463989,840.716919 411.813416,841.142517 
	C411.813416,841.142517 411.878387,841.293091 411.910187,841.985718 
	C411.422302,843.455444 410.934418,844.925232 409.827209,848.260620 
	C415.642090,843.305786 418.696991,848.104370 422.638123,849.191467 
	C426.935638,850.376831 429.942749,855.483276 435.368011,853.353882 
	C435.815613,853.178101 436.682220,854.271606 437.428223,854.614075 
	C439.230286,855.441406 441.011993,856.444885 442.915955,856.895020 
	C449.884369,858.542297 456.899353,859.992554 464.657928,861.682922 
	C466.648682,859.514771 466.618195,859.630127 471.199097,860.840820 
	C473.574158,861.468567 476.107544,862.034668 478.520447,861.877319 
	C484.886292,861.462158 491.228760,860.666748 497.573395,859.959106 
	C500.030029,859.685120 502.514008,859.427612 504.905121,858.837097 
	C512.497986,856.962036 520.000305,854.680603 527.648682,853.090515 
	C530.658630,852.464722 533.483887,852.854248 536.137207,850.229675 
	C538.818665,847.577026 542.461731,845.411194 546.074219,844.281677 
	C554.794556,841.554932 561.301575,835.341187 568.349426,830.254639 
	C571.430115,828.031311 573.215210,826.613403 576.795837,828.828308 
	C575.998352,826.026367 575.395508,823.908386 575.002441,821.995544 
	C575.002441,821.995544 574.791138,821.793457 575.670044,821.926392 
	C582.141174,821.922729 582.259705,821.781921 581.986633,814.968689 
z"/>
<path fill="#3EB5E7" opacity="1.000000" stroke="none" 
	d="
M617.904358,245.964386 
	C628.680847,241.718475 639.142822,236.197418 650.288513,233.448807 
	C697.029114,221.922302 739.566895,231.025208 776.126953,262.819916 
	C809.804199,292.107574 825.495667,329.948486 822.618958,374.244598 
	C819.566406,421.250031 797.433350,457.904175 756.721741,483.604736 
	C755.880066,484.084564 755.648621,484.221222 755.071350,484.319366 
	C753.817749,483.885895 752.862549,483.573700 752.009399,483.083771 
	C735.036377,473.337128 718.046814,463.618958 701.123291,453.786987 
	C692.104614,448.547455 683.204468,443.103912 674.440796,437.466064 
	C675.213440,436.206543 675.796143,435.233459 676.550415,434.225586 
	C676.721863,434.190735 677.007874,433.988983 677.364502,433.961914 
	C681.874084,431.328156 686.026978,428.721497 690.482666,425.960815 
	C698.016296,421.803040 705.353394,417.977936 712.454163,413.755463 
	C724.372803,406.667938 733.396057,397.092468 737.562500,383.158325 
	C741.878967,370.861084 742.254517,358.870636 736.871460,346.743286 
	C736.574158,345.954773 736.293762,345.460510 736.006470,344.600098 
	C734.060852,341.059235 732.122070,337.884491 730.128235,334.520721 
	C730.073120,334.331726 729.839172,334.015076 729.807861,333.774231 
	C729.612854,333.219086 729.355103,333.040955 729.001587,332.999512 
	C729.000000,333.000000 729.001282,332.996552 728.946411,332.739136 
	C728.627563,332.263000 728.363647,332.044250 727.970947,331.536011 
	C726.858826,330.176819 725.875488,329.107117 724.838989,327.797852 
	C724.605347,327.253387 724.339111,327.080383 723.995667,327.019836 
	C724.004150,327.000397 723.963135,327.011322 723.901672,326.766052 
	C723.558838,326.357574 723.277527,326.194366 722.999146,326.013611 
	C723.002075,325.996063 722.969299,326.010010 722.844971,325.696838 
	C719.872498,323.507721 717.024353,321.631805 714.174438,319.862610 
	C714.172729,319.969330 714.215698,319.760223 714.104614,319.440369 
	C711.010986,317.727142 708.028320,316.333801 705.021362,314.964233 
	C704.997070,314.988037 705.048401,314.949738 704.808899,314.674500 
	C702.837402,313.857971 701.123352,312.923370 699.370239,312.843292 
	C691.605713,312.488373 683.829895,312.378876 675.725098,312.157104 
	C674.581421,312.404541 673.770874,312.675415 672.561035,312.924316 
	C666.366150,315.550598 660.570618,318.198853 654.575317,320.879700 
	C654.375427,320.912292 654.022522,321.110931 653.683960,321.122314 
	C651.475525,322.362000 649.605774,323.590240 647.543945,324.852570 
	C647.351929,324.886658 647.024414,325.098755 646.673645,325.108154 
	C643.435730,326.999298 640.548523,328.881073 637.481567,330.812012 
	C637.301697,330.861206 637.005249,331.087402 636.657104,331.101471 
	C634.425232,332.336578 632.541504,333.557587 630.481934,334.811829 
	C630.306030,334.845062 630.012268,335.049713 629.675293,335.069153 
	C627.900024,336.060883 626.461670,337.033142 625.010986,338.000885 
	C624.998596,337.996338 625.003052,338.021942 624.682373,338.034851 
	C623.495972,338.643250 622.630188,339.238708 621.561279,339.873291 
	C621.358032,339.912415 621.014709,340.143677 620.775024,340.182983 
	C620.226868,340.395325 620.055298,340.657898 620.010315,341.004944 
	C620.000000,340.999908 620.011475,341.019745 619.669922,341.043762 
	C618.792847,341.468353 618.257385,341.868927 617.406860,342.353027 
	C599.247620,352.720673 581.403320,363.004761 563.237183,373.264404 
	C557.393433,376.228973 551.806396,379.104645 546.361511,382.228027 
	C529.397949,391.959106 512.461609,401.738190 495.566437,411.587494 
	C482.854950,418.997772 470.223083,426.544769 457.257751,434.272705 
	C454.288879,436.326141 451.618042,438.137787 448.975708,439.970520 
	C449.004181,439.991638 448.952515,439.939819 448.638550,439.981903 
	C447.565796,440.692535 446.807037,441.361084 446.023254,442.016357 
	C445.998230,442.003052 446.028625,442.050903 445.695435,442.093750 
	C443.546478,444.002716 441.730682,445.868866 439.604401,447.890320 
	C437.879028,449.892548 436.418823,451.706696 435.056213,453.591431 
	C418.020721,477.155365 424.284576,513.244202 448.496002,529.208679 
	C470.160156,543.493652 491.885071,542.674622 513.350098,528.343262 
	C513.409424,528.367432 513.458252,528.138977 513.651428,527.982178 
	C513.844604,527.825317 514.251587,527.539062 514.585815,527.599976 
	C517.680481,526.258423 520.519958,524.990295 523.184631,523.424683 
	C528.334961,520.398804 533.386719,517.205200 538.926147,513.904358 
	C539.624573,513.529236 539.876160,513.330872 540.406860,513.287964 
	C542.699158,512.035095 544.712463,510.626862 547.091553,509.118225 
	C549.366699,507.881378 551.276062,506.744965 553.343384,505.690857 
	C553.802124,505.688873 553.889221,505.503693 554.130005,505.099518 
	C556.717896,503.665375 558.938660,502.349396 561.420105,501.211792 
	C563.367065,500.016785 565.053345,498.643433 567.139038,497.235352 
	C575.265564,493.031464 582.992737,488.862274 591.055176,484.855835 
	C591.879700,485.088257 592.369019,485.157928 592.867859,485.469482 
	C593.236938,485.877686 593.596375,486.043976 594.198730,486.500122 
	C612.525146,497.311310 630.650269,507.762268 648.672791,518.387268 
	C656.378906,522.930359 663.871094,527.836304 671.124146,532.781738 
	C669.256409,533.963745 667.753967,534.990540 666.189087,535.911255 
	C650.797424,544.966980 635.395447,554.005127 619.691895,563.039551 
	C618.611694,563.767151 617.835876,564.503479 616.681458,565.358826 
	C608.570374,569.548157 600.721802,573.413940 593.128540,577.729248 
	C574.336426,588.408997 555.661194,599.294434 536.651611,610.068420 
	C536.135498,610.327148 535.906738,610.614746 535.478638,610.846924 
	C534.956299,610.899841 534.834717,611.119446 534.554565,611.437805 
	C533.775940,611.644287 533.357300,611.863403 532.564941,611.996582 
	C522.822205,614.602600 513.588806,617.991211 504.056854,619.845886 
	C482.175598,624.103394 460.290436,622.928833 439.302551,615.467712 
	C426.745453,611.003723 414.960693,604.367188 402.777222,598.464417 
	C402.162170,597.966797 401.598694,597.711853 400.766022,597.240723 
	C400.303162,596.900085 400.109497,596.775696 399.918640,596.335449 
	C398.144745,594.597229 396.302765,593.248474 394.601501,591.740906 
	C378.999390,577.915161 364.794250,563.010437 356.489136,543.393005 
	C354.271393,538.154602 351.422943,533.183228 348.905975,527.736328 
	C348.869385,526.919250 348.790863,526.454956 348.809784,525.599854 
	C347.602112,519.627991 346.091583,514.085693 345.032959,508.458374 
	C342.508240,495.038055 342.546997,481.510284 343.878723,467.533997 
	C347.065521,455.287048 349.103027,443.031342 353.565155,431.733185 
	C364.242859,404.697235 382.501892,383.591553 407.272827,368.225922 
	C413.307251,364.482727 419.308990,360.686829 425.678284,356.912781 
	C429.753998,354.968903 433.528503,353.118896 437.190277,351.067657 
	C446.076355,346.089996 455.011780,341.187134 463.726807,335.922333 
	C468.994751,332.739990 473.888092,328.937622 479.342438,325.362549 
	C481.441528,324.692078 483.285126,324.310486 484.832855,323.416595 
	C498.788025,315.356720 512.717957,307.252045 526.588501,299.047638 
	C529.538452,297.302765 532.216492,295.098389 535.400513,293.170044 
	C537.417603,292.512878 539.135437,291.933441 540.677551,291.047974 
	C556.915771,281.724243 573.153442,272.398834 589.333374,262.974579 
	C598.910522,257.396271 608.384155,251.640396 617.904358,245.964386 
z"/>
<path fill="#EE572B" opacity="1.000000" stroke="none" 
	d="
M671.460449,532.577393 
	C663.871094,527.836304 656.378906,522.930359 648.672791,518.387268 
	C630.650269,507.762268 612.525146,497.311310 594.146729,486.304626 
	C593.520752,485.622070 593.189514,485.424835 592.858276,485.227600 
	C592.369019,485.157928 591.879700,485.088257 590.835693,484.639038 
	C585.180847,481.627319 579.963257,479.198181 575.002197,476.325989 
	C558.286072,466.648132 541.683716,456.773834 524.975708,447.081848 
	C522.619751,445.715271 519.918213,444.944580 517.072388,443.725250 
	C509.374359,439.617065 502.297363,434.790039 494.490692,432.017395 
	C487.772339,429.631317 480.392181,427.177856 472.617493,430.133423 
	C471.737305,429.896393 471.158264,429.740204 469.534882,429.302277 
	C475.296173,426.295929 480.341400,423.953979 485.095398,421.122986 
	C495.531525,414.908295 505.735260,408.302216 516.191772,402.123291 
	C528.055176,395.113068 539.906311,388.036072 552.146545,381.733398 
	C556.771545,379.351898 560.959473,374.270599 567.533569,376.755249 
	C567.730469,376.784851 568.086426,376.963501 568.196777,377.214874 
	C568.806030,377.594482 569.305054,377.722748 570.091675,377.932739 
	C570.690979,378.257294 571.002502,378.500153 571.326233,379.004517 
	C571.641846,379.361938 571.945251,379.457794 572.294983,379.578369 
	C572.341248,379.603058 572.439392,379.639984 572.428955,380.008972 
	C573.418762,380.703857 574.419006,381.029724 575.677612,381.420593 
	C576.087830,381.577698 576.239685,381.669800 576.301880,382.123322 
	C576.621155,383.161530 576.864441,384.130585 577.464172,384.470215 
	C584.014709,388.180237 590.560974,391.906952 597.235046,395.386108 
	C601.103760,397.402802 605.202515,398.978271 609.533447,400.839661 
	C612.485962,402.154572 615.102783,403.382111 617.923584,404.920654 
	C624.098083,408.766235 630.031616,412.365173 636.046936,415.821808 
	C647.942810,422.657654 659.883911,429.414825 671.938171,436.439880 
	C672.796997,437.034302 673.523865,437.393402 674.250793,437.752502 
	C683.204468,443.103912 692.104614,448.547455 701.123291,453.786987 
	C718.046814,463.618958 735.036377,473.337128 752.009399,483.083771 
	C752.862549,483.573700 753.817749,483.885895 755.221313,484.612732 
	C756.826233,485.598969 757.935242,486.253296 759.044250,486.907654 
	C759.044250,486.907654 759.037048,486.989166 759.242310,487.247803 
	C762.796814,489.893677 766.425476,491.974731 769.441162,494.727356 
	C777.563171,502.140686 785.423584,509.840607 793.387817,517.426819 
	C793.387817,517.426819 793.494629,517.489502 793.605713,517.858215 
	C794.443176,519.340515 795.126465,520.485107 795.902283,521.563110 
	C806.710022,536.580139 815.283386,552.739136 818.633118,571.052612 
	C820.865540,583.257141 821.759338,595.706482 823.252197,608.046265 
	C823.174072,609.109497 823.095947,610.172791 822.845825,611.960876 
	C821.132507,622.122803 819.591187,631.559875 818.049927,640.996948 
	C818.049927,640.996948 817.988159,641.028442 817.766968,641.312256 
	C814.656128,649.361572 811.766479,657.127136 808.876831,664.892700 
	C808.876831,664.892700 808.979492,664.997559 808.625732,665.093567 
	C801.624390,674.909424 795.509033,685.057007 788.155151,694.209351 
	C782.593872,701.130737 775.450623,706.781189 769.011475,712.997192 
	C769.011475,712.997253 768.998901,712.997559 768.649536,713.038574 
	C765.411438,715.003845 762.635498,717.130920 759.611755,718.812317 
	C752.125061,722.975220 744.524963,726.934265 736.970398,730.975220 
	C736.970398,730.975220 737.000000,731.000000 736.604675,730.994995 
	C730.147644,733.014038 724.085876,735.038025 718.024170,737.062012 
	C717.578247,737.080627 717.132385,737.099304 715.972046,737.182739 
	C701.314209,740.466797 687.179138,740.982483 672.955383,740.247620 
	C672.521057,740.148743 672.086792,740.049927 670.980591,739.805725 
	C665.877991,739.118347 661.447327,738.576294 657.016663,738.034180 
	C657.016663,738.034180 656.984680,737.977112 656.703003,737.729614 
	C644.790100,733.086182 633.158875,728.690247 621.796692,724.109436 
	C618.111389,720.491150 619.013977,715.851501 619.010803,711.461304 
	C618.993042,687.191162 619.024475,662.920959 618.958008,638.651001 
	C618.952881,636.763794 618.325684,634.878357 617.982239,632.554504 
	C618.006409,630.658325 618.035950,629.199707 618.407715,627.833130 
	C629.345825,634.098145 639.771118,640.593140 650.596497,646.333679 
	C658.124817,650.325684 666.202881,653.281006 674.353638,656.815674 
	C675.121155,656.935791 675.570251,656.939819 676.372437,657.150146 
	C695.495728,659.796936 711.918457,655.278076 725.036987,641.022827 
	C725.008362,640.996338 725.049011,641.062439 725.365967,640.948242 
	C729.183167,635.191833 732.683411,629.549622 736.422974,623.639099 
	C736.750366,622.905518 736.838379,622.440308 737.157043,621.694214 
	C744.726257,600.418335 739.191528,575.642090 722.079468,562.596313 
	C710.051392,553.426331 696.116699,546.757263 683.018616,538.985718 
	C683.003906,539.000000 683.023682,538.965820 682.871826,538.665527 
	C679.489441,536.570496 676.258972,534.775757 672.805664,532.802368 
	C672.208740,532.608276 671.834595,532.592834 671.460449,532.577393 
z"/>
<path fill="#272360" opacity="1.000000" stroke="none" 
	d="
M617.880859,245.527771 
	C608.384155,251.640396 598.910522,257.396271 589.333374,262.974579 
	C573.153442,272.398834 556.915771,281.724243 540.677551,291.047974 
	C539.135437,291.933441 537.417603,292.512878 535.355835,292.691772 
	C534.916443,277.495605 534.998779,262.841156 534.865356,248.188675 
	C534.683899,228.277069 526.426819,212.589706 509.824066,201.456192 
	C476.719177,179.256699 429.407288,201.000351 426.070862,240.628830 
	C424.554443,258.640656 425.831055,276.887634 425.604645,295.359802 
	C425.354340,316.099518 425.340057,336.507355 425.325806,356.915192 
	C419.308990,360.686829 413.307251,364.482727 407.272827,368.225922 
	C382.501892,383.591553 364.242859,404.697235 353.565155,431.733185 
	C349.103027,443.031342 347.065521,455.287048 343.659882,467.429138 
	C343.138702,467.546387 342.916962,467.310272 342.817291,466.573181 
	C342.945709,453.356018 343.060120,440.607849 342.997406,427.860535 
	C342.960815,420.428375 342.640686,412.997681 342.503662,405.234711 
	C342.574829,404.455658 342.590485,404.008209 342.656921,403.546814 
	C342.707703,403.532867 342.600647,403.527191 342.612518,403.025909 
	C342.542725,382.104004 342.461090,361.683350 342.550842,340.805542 
	C342.799774,338.693268 342.944061,337.038177 342.944916,335.383026 
	C342.959137,307.311432 342.963074,279.239807 342.938629,251.168228 
	C342.937042,249.355667 342.686066,247.543350 342.551086,245.730911 
	C343.376190,214.270554 353.228027,185.981064 372.932495,161.404709 
	C391.481323,138.269745 415.134399,122.233757 443.839142,114.801849 
	C486.199921,103.834305 525.965088,110.547844 561.356201,136.621216 
	C594.710999,161.194412 613.361755,194.639130 616.986328,236.157944 
	C617.246521,239.138321 617.565735,242.113556 617.880859,245.527771 
z"/>
<path fill="#ED3B50" opacity="1.000000" stroke="none" 
	d="
M399.915833,596.651245 
	C400.109497,596.775696 400.303162,596.900085 400.782990,597.501099 
	C401.655670,598.220947 402.242218,598.464050 402.828766,598.707153 
	C414.960693,604.367188 426.745453,611.003723 439.302551,615.467712 
	C460.290436,622.928833 482.175598,624.103394 504.056854,619.845886 
	C513.588806,617.991211 522.822205,614.602600 532.422241,612.302795 
	C531.453552,613.574951 530.346497,614.635437 529.039429,615.306091 
	C519.873840,620.009033 510.638458,624.576477 501.491425,629.314636 
	C498.890564,630.661804 496.552032,632.505676 494.015472,633.988892 
	C489.775574,636.467957 485.453888,638.807739 481.232422,641.316772 
	C480.879730,641.526489 481.025208,642.574219 480.621826,643.281921 
	C478.877167,644.221130 477.449982,645.110962 475.731689,646.071777 
	C475.280975,646.262695 475.121307,646.382690 474.773193,646.482666 
	C474.312134,646.568604 474.180939,646.767822 474.127563,647.039917 
	C474.063934,647.019531 474.036560,647.150330 473.780609,647.160156 
	C473.303070,647.416748 473.081482,647.663513 472.518127,647.970459 
	C467.108887,651.033020 462.041473,654.035278 456.622711,657.062622 
	C450.823151,660.372681 445.374908,663.657776 439.649872,667.004272 
	C438.913971,667.394287 438.454895,667.722839 437.638611,668.057495 
	C433.106506,670.716736 428.931671,673.369934 424.395386,676.005615 
	C410.672668,683.515930 397.294250,691.013428 383.956299,698.582275 
	C375.358704,703.461182 366.774658,708.367371 358.272858,713.410339 
	C353.050598,716.507874 347.994934,719.886230 342.526672,723.159790 
	C340.009064,724.378662 337.829285,725.576355 335.649475,726.774048 
	C322.521210,730.850037 309.622284,736.068848 296.215973,738.759094 
	C270.039917,744.012024 244.528625,739.876953 220.164917,729.303833 
	C183.912460,713.571411 158.595139,686.898438 145.402130,649.851196 
	C130.835800,608.947449 135.188156,569.252075 157.398331,531.785645 
	C168.636139,512.828552 183.754578,497.615417 203.329163,486.315430 
	C206.824341,487.627960 209.806686,488.710480 212.552551,490.222504 
	C220.150467,494.406281 227.713058,498.662384 235.175156,503.083099 
	C252.059952,513.086243 268.875916,523.205505 285.448975,533.528381 
	C272.664612,541.071350 260.090332,548.261475 247.652420,555.680176 
	C229.999756,566.209290 220.564316,581.810852 219.885025,602.395447 
	C218.627380,640.506470 258.807312,668.755249 294.059509,654.233215 
	C303.531006,650.331482 312.289154,644.641663 321.222961,639.508423 
	C328.705292,635.209167 335.966309,630.524719 343.673157,626.001526 
	C344.808411,625.751953 345.675934,625.651062 346.371582,625.251160 
	C363.000244,615.692810 379.610474,606.102478 396.593384,596.599609 
	C397.947083,596.671326 398.931458,596.661316 399.915833,596.651245 
z"/>
<path fill="#7EC245" opacity="1.000000" stroke="none" 
	d="
M342.219513,245.737396 
	C342.686066,247.543350 342.937042,249.355667 342.938629,251.168228 
	C342.963074,279.239807 342.959137,307.311432 342.944916,335.383026 
	C342.944061,337.038177 342.799774,338.693268 342.226593,340.734985 
	C330.870880,334.994507 319.842896,329.143707 309.193756,322.669678 
	C296.223785,314.784637 282.921387,309.405731 267.222870,311.764648 
	C243.758469,315.290497 224.672424,333.191437 220.502258,356.297333 
	C216.350357,379.302155 227.957382,402.857697 248.704788,414.329773 
	C259.322449,420.200653 269.626251,426.639191 280.174408,433.084564 
	C280.617920,433.456512 280.958954,433.565125 281.348694,433.627258 
	C281.397461,433.580780 281.529968,433.556732 281.426941,433.916534 
	C282.186310,435.418243 282.811005,436.974854 283.952820,437.629395 
	C288.599762,440.293304 293.459747,442.586609 298.093597,445.271301 
	C298.790344,445.675018 298.703217,447.431702 298.764801,447.684479 
	C301.272522,448.405975 303.532928,448.647278 305.374420,449.654480 
	C315.175323,455.015167 324.970764,460.402924 334.530518,466.174805 
	C336.794250,467.541595 339.505768,470.331329 339.656982,472.621887 
	C340.090698,479.193024 339.279358,485.842529 339.051270,492.464447 
	C339.007111,493.746674 339.232056,495.090668 339.605774,496.323425 
	C340.306396,498.634338 341.697052,500.842163 341.899231,503.171112 
	C342.150513,506.066071 341.488220,509.040344 341.187653,512.340820 
	C345.939972,511.418152 344.052765,515.395081 344.980896,517.379211 
	C346.305939,520.211731 347.476074,523.116699 348.712341,525.990723 
	C348.790863,526.454956 348.869385,526.919250 348.679871,527.970703 
	C350.438965,534.503052 351.294495,541.263062 354.742615,546.219604 
	C361.455688,555.869568 365.620422,567.258850 374.654877,575.395630 
	C376.542694,577.095886 376.854462,580.546082 377.533386,583.121704 
	C370.449860,579.213989 363.768707,575.296021 356.986115,571.562317 
	C352.389832,569.032104 347.651001,566.760803 342.669159,564.189575 
	C339.227570,562.159668 336.090698,560.317261 332.958252,558.467468 
	C318.579590,549.976257 304.202209,541.483032 289.713409,532.667786 
	C288.653198,531.267944 287.905212,529.826721 286.722046,529.172791 
	C278.933075,524.867615 270.913208,520.967529 263.226257,516.492859 
	C246.275894,506.625885 229.523804,496.418304 212.572922,486.552246 
	C209.727173,484.895874 206.290146,484.255402 203.126297,483.145538 
	C185.908936,473.329407 172.013687,459.848755 161.009521,443.552399 
	C144.637802,419.307129 136.494370,392.351379 137.226700,363.068787 
	C138.110489,327.730713 150.534790,296.862122 175.119354,271.285614 
	C205.223083,239.967316 242.406723,226.367218 285.463043,229.082474 
	C303.671112,230.230728 321.155975,235.035309 337.386810,243.749237 
	C338.828552,244.523285 340.384857,245.084061 342.219513,245.737396 
z"/>
<path fill="#F69421" opacity="1.000000" stroke="none" 
	d="
M342.864471,723.138550 
	C347.994934,719.886230 353.050598,716.507874 358.272858,713.410339 
	C366.774658,708.367371 375.358704,703.461182 383.956299,698.582275 
	C397.294250,691.013428 410.672668,683.515930 424.498322,676.462646 
	C425.054993,693.192627 424.676453,709.468811 425.386688,725.697266 
	C425.967072,738.958557 430.569397,750.904480 441.123230,760.152222 
	C441.498352,760.593872 441.794617,760.778015 442.197601,761.276855 
	C449.212646,769.053955 457.900848,773.577942 467.659943,775.600830 
	C492.904083,780.833618 515.225098,770.824524 528.342651,748.492249 
	C533.273376,740.097778 535.854553,730.933472 534.789551,720.556763 
	C534.811279,709.749329 534.749634,699.404663 534.832153,688.659180 
	C535.019104,683.644531 535.062012,679.030640 535.086609,673.922241 
	C535.031799,656.620056 534.995300,639.812317 534.976135,622.604980 
	C534.976074,621.139160 534.958679,620.072937 534.962769,618.591370 
	C534.987488,616.792969 534.990845,615.409912 534.996094,613.598022 
	C534.970154,612.596252 534.942322,612.023315 534.914490,611.450439 
	C534.834717,611.119446 534.956299,610.899841 535.739990,610.799316 
	C536.446716,610.570374 536.692871,610.333801 536.939026,610.097229 
	C555.661194,599.294434 574.336426,588.408997 593.128540,577.729248 
	C600.721802,573.413940 608.570374,569.548157 616.719116,565.895081 
	C617.180237,584.508179 617.197693,602.704224 617.304260,620.899658 
	C617.317566,623.181519 617.800354,625.460693 618.065552,627.741089 
	C618.035950,629.199707 618.006409,630.658325 617.973083,633.024048 
	C617.965576,663.564758 617.961792,693.198242 617.764893,723.201233 
	C617.408936,724.883118 617.141052,726.192200 617.098816,727.508484 
	C616.355225,750.685425 609.479187,772.040466 598.006653,792.041809 
	C596.305237,795.008179 594.668152,798.011414 593.001343,800.997559 
	C593.001282,800.997559 593.000000,801.000000 592.691895,801.134521 
	C588.834717,805.752441 585.285706,810.235901 581.736694,814.719299 
	C581.736694,814.719299 581.986633,814.968689 581.536133,814.934692 
	C578.987488,817.198303 576.889282,819.495850 574.791138,821.793457 
	C574.791138,821.793457 575.002441,821.995544 574.569946,821.971069 
	C567.187195,827.306213 560.636536,833.310181 553.216858,837.913208 
	C522.063599,857.240295 488.284088,863.183594 452.304779,856.232178 
	C438.039124,853.475952 424.793671,847.790283 411.878387,841.293091 
	C411.878387,841.293091 411.813416,841.142517 411.595612,840.874634 
	C410.238251,840.125916 409.098724,839.645142 407.959198,839.164368 
	C407.959198,839.164368 407.660095,838.916199 407.351624,838.590698 
	C406.345001,837.911865 405.646820,837.558472 404.948639,837.205139 
	C404.948639,837.205139 404.669434,836.930908 404.366119,836.588379 
	C403.356750,835.906982 402.650665,835.568176 401.944580,835.229370 
	C401.167145,834.535645 400.389679,833.841980 399.138794,832.803345 
	C396.523773,830.656494 394.201660,829.028137 392.272034,827.022278 
	C384.088715,818.515442 376.021881,809.896606 367.912537,801.318665 
	C367.683258,801.027405 367.454010,800.736145 367.034210,799.892212 
	C364.050385,795.059814 361.257050,790.780090 358.463745,786.500427 
	C358.463745,786.500427 358.450317,786.181396 358.317688,785.682983 
	C354.219086,774.131287 349.868805,763.195618 346.435547,751.979248 
	C344.472137,745.565002 344.001068,738.693970 342.858093,732.028564 
	C342.879456,731.282593 342.900848,730.536560 342.936615,729.012695 
	C342.922150,726.536011 342.893311,724.837280 342.864471,723.138550 
z"/>
<path fill="#FDECD2" opacity="1.000000" stroke="none" 
	d="
M411.894287,841.639404 
	C424.793671,847.790283 438.039124,853.475952 452.304779,856.232178 
	C488.284088,863.183594 522.063599,857.240295 553.216858,837.913208 
	C560.636536,833.310181 567.187195,827.306213 574.465088,821.868530 
	C575.395508,823.908386 575.998352,826.026367 576.795837,828.828308 
	C573.215210,826.613403 571.430115,828.031311 568.349426,830.254639 
	C561.301575,835.341187 554.794556,841.554932 546.074219,844.281677 
	C542.461731,845.411194 538.818665,847.577026 536.137207,850.229675 
	C533.483887,852.854248 530.658630,852.464722 527.648682,853.090515 
	C520.000305,854.680603 512.497986,856.962036 504.905121,858.837097 
	C502.514008,859.427612 500.030029,859.685120 497.573395,859.959106 
	C491.228760,860.666748 484.886292,861.462158 478.520447,861.877319 
	C476.107544,862.034668 473.574158,861.468567 471.199097,860.840820 
	C466.618195,859.630127 466.648682,859.514771 464.657928,861.682922 
	C456.899353,859.992554 449.884369,858.542297 442.915955,856.895020 
	C441.011993,856.444885 439.230286,855.441406 437.428223,854.614075 
	C436.682220,854.271606 435.815613,853.178101 435.368011,853.353882 
	C429.942749,855.483276 426.935638,850.376831 422.638123,849.191467 
	C418.696991,848.104370 415.642090,843.305786 409.827209,848.260620 
	C410.934418,844.925232 411.422302,843.455444 411.894287,841.639404 
z"/>
<path fill="#FDECD2" opacity="1.000000" stroke="none" 
	d="
M593.387695,801.000488 
	C594.668152,798.011414 596.305237,795.008179 598.006653,792.041809 
	C609.479187,772.040466 616.355225,750.685425 617.098816,727.508484 
	C617.141052,726.192200 617.408936,724.883118 618.043152,723.392639 
	C619.518921,723.574463 620.523254,723.934387 621.527649,724.294250 
	C633.158875,728.690247 644.790100,733.086182 656.673767,737.744263 
	C649.296143,736.608276 641.540222,735.670776 634.085571,733.631531 
	C629.911438,732.489746 626.236694,729.522156 620.630432,726.438477 
	C618.551270,738.956604 617.090210,749.850586 614.804443,760.568787 
	C613.771240,765.413086 611.068909,769.895874 609.178284,774.564819 
	C607.840881,777.867493 606.827942,781.322449 605.254639,784.503967 
	C602.739807,789.588989 599.973816,794.559082 597.078369,799.437927 
	C596.562439,800.307251 594.904602,800.498901 593.387695,801.000488 
z"/>
<path fill="#B38D51" opacity="1.000000" stroke="none" 
	d="
M203.205246,483.394592 
	C206.290146,484.255402 209.727173,484.895874 212.572922,486.552246 
	C229.523804,496.418304 246.275894,506.625885 263.226257,516.492859 
	C270.913208,520.967529 278.933075,524.867615 286.722046,529.172791 
	C287.905212,529.826721 288.653198,531.267944 289.371063,532.680786 
	C287.999725,533.103577 286.859833,533.190552 285.719910,533.277527 
	C268.875916,523.205505 252.059952,513.086243 235.175156,503.083099 
	C227.713058,498.662384 220.150467,494.406281 212.552551,490.222504 
	C209.806686,488.710480 206.824341,487.627960 203.664581,486.187561 
	C203.347549,485.231689 203.315872,484.437653 203.205246,483.394592 
z"/>
<path fill="#FDECD2" opacity="1.000000" stroke="none" 
	d="
M823.622925,607.921631 
	C821.759338,595.706482 820.865540,583.257141 818.633118,571.052612 
	C815.283386,552.739136 806.710022,536.580139 795.902283,521.563110 
	C795.126465,520.485107 794.443176,519.340515 793.630249,517.915039 
	C794.703430,518.015503 796.385376,518.076111 796.938599,518.897156 
	C800.682434,524.453979 804.604797,529.956909 807.660706,535.893555 
	C811.194763,542.758911 813.974121,550.020508 816.933533,557.171082 
	C818.739807,561.535522 821.136475,565.897583 821.754028,570.465332 
	C823.424927,582.823486 826.707886,595.156738 823.622925,607.921631 
z"/>
<path fill="#FDECD2" opacity="1.000000" stroke="none" 
	d="
M342.542389,732.215027 
	C344.001068,738.693970 344.472137,745.565002 346.435547,751.979248 
	C349.868805,763.195618 354.219086,774.131287 358.215210,785.560547 
	C356.908661,784.538757 354.913513,783.360596 354.360199,781.701538 
	C352.776398,776.952942 348.588470,773.727417 348.554230,767.746399 
	C348.521576,762.038513 345.185333,756.349426 342.350311,749.438049 
	C342.149963,751.027466 341.949585,752.616882 341.749237,754.206299 
	C341.233704,753.714905 340.718170,753.223450 340.202637,752.732056 
	C339.942444,752.546936 339.437317,752.328552 339.457275,752.181396 
	C340.351501,745.584167 341.291809,738.993225 342.542389,732.215027 
z"/>
<path fill="#FDECD2" opacity="1.000000" stroke="none" 
	d="
M769.410034,713.013306 
	C775.450623,706.781189 782.593872,701.130737 788.155151,694.209351 
	C795.509033,685.057007 801.624390,674.909424 808.577759,665.041321 
	C808.332153,670.324341 806.847778,675.106750 802.913818,679.424561 
	C798.697937,684.051941 795.705750,689.775330 791.940552,694.842834 
	C790.671570,696.550720 788.604736,697.644775 787.019287,699.142883 
	C783.661438,702.315857 780.532288,705.750061 777.010742,708.723389 
	C774.901672,710.504150 772.228333,711.616577 769.410034,713.013306 
z"/>
<path fill="#FDECD2" opacity="1.000000" stroke="none" 
	d="
M793.562134,517.057434 
	C785.423584,509.840607 777.563171,502.140686 769.441162,494.727356 
	C766.425476,491.974731 762.796814,489.893677 759.275146,487.223358 
	C764.041443,489.296143 769.686462,490.804260 773.760071,494.198456 
	C780.560791,499.864838 786.399719,506.696442 792.521545,513.153137 
	C793.301575,513.975891 793.349426,515.492737 793.562134,517.057434 
z"/>
<path fill="#FDECD2" opacity="1.000000" stroke="none" 
	d="
M367.925049,801.667969 
	C376.021881,809.896606 384.088715,818.515442 392.272034,827.022278 
	C394.201660,829.028137 396.523773,830.656494 398.827240,832.751709 
	C398.427551,833.214233 397.634949,833.712341 397.338593,833.504089 
	C391.789337,829.605164 385.480469,826.368347 381.010345,821.462402 
	C375.806885,815.751404 372.223816,808.564026 367.925049,801.667969 
z"/>
<path fill="#FDECD2" opacity="1.000000" stroke="none" 
	d="
M673.071472,740.624390 
	C687.179138,740.982483 701.314209,740.466797 715.657837,737.303040 
	C715.158752,738.542847 714.392456,740.618896 713.339844,740.776001 
	C700.241638,742.730591 687.067322,742.665710 673.886963,741.660950 
	C673.638489,741.642029 673.419983,741.229919 673.071472,740.624390 
z"/>
<path fill="#FDECD2" opacity="1.000000" stroke="none" 
	d="
M737.407959,731.003052 
	C744.524963,726.934265 752.125061,722.975220 759.611755,718.812317 
	C762.635498,717.130920 765.411438,715.003845 768.647827,713.044312 
	C768.240906,715.051392 767.486267,717.093750 766.681152,719.272644 
	C765.343079,719.556091 763.357544,719.613403 761.716064,720.394165 
	C757.213623,722.535461 752.606201,724.616760 748.518677,727.419495 
	C745.170959,729.714844 742.087158,731.808228 737.407959,731.003052 
z"/>
<path fill="#FDECD2" opacity="1.000000" stroke="none" 
	d="
M818.443420,640.985840 
	C819.591187,631.559875 821.132507,622.122803 822.896423,612.358643 
	C822.741699,619.164612 822.603333,626.322754 821.861572,633.417786 
	C821.590149,636.013794 819.886963,638.460083 818.443420,640.985840 
z"/>
<path fill="#FDECD2" opacity="1.000000" stroke="none" 
	d="
M809.229614,664.882141 
	C811.766479,657.127136 814.656128,649.361572 817.782959,641.342957 
	C817.222839,649.732178 816.700684,658.472046 809.229614,664.882141 
z"/>
<path fill="#FDECD2" opacity="1.000000" stroke="none" 
	d="
M358.223511,786.815063 
	C361.257050,790.780090 364.050385,795.059814 366.841736,799.691345 
	C365.573120,798.888123 363.852936,797.959412 363.138794,796.528564 
	C361.844635,793.935669 361.239258,790.993103 357.211029,792.572327 
	C356.805389,792.731323 355.376099,791.479248 355.417328,791.399963 
	C356.182434,789.929626 357.098785,788.537903 358.223511,786.815063 
z"/>
<path fill="#FDECD2" opacity="1.000000" stroke="none" 
	d="
M718.278320,737.323730 
	C724.085876,735.038025 730.147644,733.014038 736.594055,730.979492 
	C735.209290,735.453430 730.511353,735.104004 727.081116,736.608765 
	C724.571716,737.709656 721.405762,737.314087 718.278320,737.323730 
z"/>
<path fill="#FDECD2" opacity="1.000000" stroke="none" 
	d="
M582.131958,814.801025 
	C585.285706,810.235901 588.834717,805.752441 592.690796,801.135620 
	C592.627625,806.141418 586.813171,813.849487 582.131958,814.801025 
z"/>
<path fill="#FDECD2" opacity="1.000000" stroke="none" 
	d="
M575.230591,821.859924 
	C576.889282,819.495850 578.987488,817.198303 581.403992,814.817749 
	C582.259705,821.781921 582.141174,821.922729 575.230591,821.859924 
z"/>
<path fill="#FDECD2" opacity="1.000000" stroke="none" 
	d="
M342.526672,723.159790 
	C342.893311,724.837280 342.922150,726.536011 342.847260,728.648926 
	C340.641479,728.354492 338.539459,727.645874 336.043457,726.855591 
	C337.829285,725.576355 340.009064,724.378662 342.526672,723.159790 
z"/>
<path fill="#FDECD2" opacity="1.000000" stroke="none" 
	d="
M657.098633,738.418823 
	C661.447327,738.576294 665.877991,739.118347 670.646362,739.853394 
	C666.382874,739.632019 661.781677,739.217712 657.098633,738.418823 
z"/>
<path fill="#FDECD2" opacity="1.000000" stroke="none" 
	d="
M758.995605,486.583557 
	C757.935242,486.253296 756.826233,485.598969 755.567261,484.651245 
	C755.648621,484.221222 755.880066,484.084564 756.504395,483.857117 
	C757.580627,484.597351 758.263794,485.428406 758.995605,486.583557 
z"/>
<path fill="#FDECD2" opacity="1.000000" stroke="none" 
	d="
M408.024628,839.492920 
	C409.098724,839.645142 410.238251,840.125916 411.514374,840.885681 
	C410.463989,840.716919 409.277039,840.269226 408.024628,839.492920 
z"/>
<path fill="#FDECD2" opacity="1.000000" stroke="none" 
	d="
M405.010925,837.530396 
	C405.646820,837.558472 406.345001,837.911865 407.161224,838.551880 
	C406.543884,838.510925 405.808533,838.183289 405.010925,837.530396 
z"/>
<path fill="#FDECD2" opacity="1.000000" stroke="none" 
	d="
M402.015930,835.549683 
	C402.650665,835.568176 403.356750,835.906982 404.177185,836.537354 
	C403.556824,836.509155 402.822083,836.189514 402.015930,835.549683 
z"/>
<path fill="#FDFEFE" opacity="1.000000" stroke="none" 
	d="
M425.840698,295.027924 
	C425.831055,276.887634 424.554443,258.640656 426.070862,240.628830 
	C429.407288,201.000351 476.719177,179.256699 509.824066,201.456192 
	C526.426819,212.589706 534.683899,228.277069 534.865356,248.188675 
	C534.998779,262.841156 534.916443,277.495605 534.975037,292.627441 
	C532.216492,295.098389 529.538452,297.302765 526.588501,299.047638 
	C512.717957,307.252045 498.788025,315.356720 484.832855,323.416595 
	C483.285126,324.310486 481.441528,324.692078 479.050964,325.148804 
	C472.374603,321.474487 466.420868,317.894989 460.381989,314.465363 
	C448.893921,307.941010 437.357239,301.502228 425.840698,295.027924 
z"/>
<path fill="#FDFEFE" opacity="1.000000" stroke="none" 
	d="
M671.806274,436.204529 
	C659.883911,429.414825 647.942810,422.657654 636.046936,415.821808 
	C630.031616,412.365173 624.098083,408.766235 617.985107,404.490814 
	C617.915588,383.527069 617.988525,363.304108 618.374329,343.012207 
	C619.128601,342.302063 619.570007,341.660919 620.011475,341.019745 
	C620.011475,341.019745 620.000000,340.999908 620.232788,340.935272 
	C620.749390,340.704468 620.932434,340.462158 621.014709,340.143677 
	C621.014709,340.143677 621.358032,339.912415 621.931763,339.933777 
	C623.337952,339.310760 624.170471,338.666351 625.003052,338.021912 
	C625.003052,338.021942 624.998596,337.996338 625.374634,338.009033 
	C627.171204,337.031067 628.591736,336.040405 630.012268,335.049713 
	C630.012268,335.049713 630.306030,334.845062 630.869141,334.863098 
	C633.289978,333.616547 635.147644,332.351990 637.005249,331.087402 
	C637.005249,331.087402 637.301697,330.861206 637.873779,330.861816 
	C641.794556,329.669342 645.939331,329.661041 647.024414,325.098755 
	C647.024414,325.098755 647.351929,324.886658 647.942322,324.915466 
	C650.362671,323.666473 652.192566,322.388702 654.022522,321.110931 
	C654.022522,321.110931 654.375427,320.912292 654.977539,320.932251 
	C658.208313,320.179596 660.988647,319.724152 663.428467,318.557007 
	C666.742126,316.971863 669.795349,314.842285 672.960327,312.946259 
	C673.770874,312.675415 674.581421,312.404541 676.034546,312.420929 
	C686.134216,313.455383 695.591309,314.202545 705.048401,314.949707 
	C705.048401,314.949738 704.997070,314.988037 705.046265,315.335999 
	C708.135498,317.042725 711.175598,318.401459 714.215698,319.760193 
	C714.215698,319.760223 714.172729,319.969330 714.239990,320.239227 
	C715.132141,325.590454 719.333801,325.354492 722.969299,326.010010 
	C722.969299,326.010010 723.002075,325.996063 723.087402,326.239502 
	C723.364197,326.766724 723.627686,326.942871 723.963135,327.011322 
	C723.963135,327.011322 724.004150,327.000397 724.072510,327.244537 
	C724.315674,327.775208 724.566040,327.958130 724.892151,328.037415 
	C725.875488,329.107117 726.858826,330.176819 728.015259,331.800018 
	C728.459351,332.567871 728.730286,332.782227 729.001282,332.996552 
	C729.001282,332.996552 729.000000,333.000000 729.063721,333.224213 
	C729.284424,333.738129 729.521606,333.927032 729.839172,334.015076 
	C729.839172,334.015076 730.073120,334.331726 730.096985,334.921173 
	C731.233948,339.192871 731.257263,343.554230 736.013367,344.966217 
	C736.293762,345.460510 736.574158,345.954773 736.622498,346.993256 
	C737.261719,355.273254 738.481567,362.991913 738.864014,370.751831 
	C739.069397,374.919830 737.836670,379.158722 737.252808,383.365631 
	C733.396057,397.092468 724.372803,406.667938 712.454163,413.755463 
	C705.353394,417.977936 698.016296,421.803040 690.076721,425.974213 
	C683.857422,426.567230 679.780518,429.250977 677.007874,433.988983 
	C677.007874,433.988983 676.721863,434.190735 676.179138,434.161224 
	C674.359680,434.822632 673.082947,435.513550 671.806274,436.204529 
z"/>
<path fill="#FEFEFD" opacity="1.000000" stroke="none" 
	d="
M671.124146,532.781738 
	C671.834595,532.592834 672.208740,532.608276 672.928833,533.137329 
	C672.785522,535.339478 672.296265,537.027954 671.586548,539.477478 
	C672.318665,539.659973 673.694946,540.356567 675.010925,540.256958 
	C677.699036,540.053345 680.354675,539.421387 683.023682,538.965820 
	C683.023682,538.965820 683.003906,539.000000 683.010620,539.376648 
	C682.955322,543.683105 686.532043,542.351196 688.396851,543.518616 
	C697.338318,549.116211 705.960449,555.286987 715.202148,560.325745 
	C726.512451,566.492249 731.307617,577.306152 735.978882,587.993286 
	C740.081909,597.380188 738.273682,607.521240 736.764709,617.390808 
	C736.537659,618.875977 736.858765,620.444885 736.926331,621.975098 
	C736.838379,622.440308 736.750366,622.905518 736.138855,623.639587 
	C734.896606,623.602661 734.177795,623.296875 733.882690,623.171326 
	C732.772888,625.182312 730.999207,627.069397 730.731689,629.150024 
	C730.127075,633.852905 723.816833,635.654297 725.049011,641.062439 
	C725.049011,641.062439 725.008362,640.996338 724.644531,640.997253 
	C722.497681,641.708435 720.562378,642.175537 718.962341,643.177917 
	C715.241150,645.509155 711.893616,648.528931 707.991089,650.450256 
	C704.714722,652.063354 700.865417,652.508606 697.274414,653.488037 
	C694.229004,654.318726 691.235718,655.469971 688.137390,655.944458 
	C684.140747,656.556396 680.062500,656.635315 676.019409,656.943848 
	C675.570251,656.939819 675.121155,656.935791 674.302673,656.484497 
	C672.450806,654.793640 671.148376,653.152344 669.450867,652.383484 
	C664.967529,650.352539 660.101990,649.099854 655.769470,646.815063 
	C646.079041,641.704651 636.542725,636.285034 627.127625,630.682312 
	C625.076355,629.461670 622.402283,626.960266 622.382812,625.024841 
	C622.241150,610.943359 622.784241,596.856201 622.886475,582.769287 
	C622.900574,580.829895 622.115845,578.546875 620.938477,577.005310 
	C618.291748,573.539673 618.757996,570.054688 619.685608,565.721313 
	C621.587524,566.709717 623.057922,567.473938 624.528381,568.238098 
	C624.821594,567.841309 625.114807,567.444519 625.408020,567.047729 
	C623.604126,565.714600 621.800232,564.381409 619.996338,563.048218 
	C635.395447,554.005127 650.797424,544.966980 666.189087,535.911255 
	C667.753967,534.990540 669.256409,533.963745 671.124146,532.781738 
z"/>
<path fill="#FDFEFD" opacity="1.000000" stroke="none" 
	d="
M472.918610,430.214264 
	C480.392181,427.177856 487.772339,429.631317 494.490692,432.017395 
	C502.297363,434.790039 509.374359,439.617065 517.125183,444.045410 
	C529.751953,456.674835 535.296875,471.464050 534.839722,488.574677 
	C534.812012,488.539368 534.919250,488.472748 534.733154,488.908844 
	C534.483459,490.600891 534.419800,491.856873 534.156494,493.441895 
	C532.485596,503.395447 528.477417,511.808289 521.678040,519.137695 
	C521.271057,519.772095 521.094910,520.267151 520.916504,520.839294 
	C520.914368,520.916443 520.760010,520.919495 520.381348,520.931580 
	C516.054382,521.199341 513.652344,522.856384 514.300415,527.331665 
	C514.320984,527.404480 514.251587,527.539062 514.251587,527.539062 
	C514.251587,527.539062 513.844604,527.825317 513.636353,528.020020 
	C513.428101,528.214661 513.290771,528.319092 513.290771,528.319092 
	C491.885071,542.674622 470.160156,543.493652 448.496002,529.208679 
	C424.284576,513.244202 418.020721,477.155365 435.056213,453.591431 
	C436.418823,451.706696 437.879028,449.892548 439.776642,448.171753 
	C444.269806,448.143280 445.763580,445.664459 446.028625,442.050903 
	C446.028625,442.050903 445.998230,442.003052 446.376282,442.014160 
	C447.487030,441.330109 448.219788,440.634979 448.952515,439.939819 
	C448.952515,439.939819 449.004181,439.991638 449.374603,439.993408 
	C454.230316,440.076599 457.025604,437.467010 459.598267,433.814148 
	C464.247314,432.487640 468.582977,431.350952 472.918610,430.214264 
z"/>
<path fill="#F39426" opacity="1.000000" stroke="none" 
	d="
M534.867432,488.609985 
	C535.296875,471.464050 529.751953,456.674835 517.429443,444.218201 
	C519.918213,444.944580 522.619751,445.715271 524.975708,447.081848 
	C541.683716,456.773834 558.286072,466.648132 575.002197,476.325989 
	C579.963257,479.198181 585.180847,481.627319 590.500427,484.476257 
	C582.992737,488.862274 575.265564,493.031464 566.842407,497.191162 
	C564.484070,498.465637 562.821716,499.749542 561.159363,501.033447 
	C558.938660,502.349396 556.717896,503.665375 553.999390,505.093933 
	C553.318726,505.279541 553.213379,505.413513 553.185364,505.608551 
	C551.276062,506.744965 549.366699,507.881378 546.777710,509.092651 
	C544.107971,510.489136 542.117859,511.810852 540.127747,513.132568 
	C539.876160,513.330872 539.624573,513.529236 538.553833,513.869690 
	C534.515686,514.194885 535.052551,511.865387 534.982788,509.920349 
	C534.781738,504.317535 534.566040,498.715302 534.356140,493.112823 
	C534.419800,491.856873 534.483459,490.600891 534.718262,488.929504 
	C534.889465,488.514038 534.867432,488.609985 534.867432,488.609985 
z"/>
<path fill="#7EBE4D" opacity="1.000000" stroke="none" 
	d="
M425.604675,295.359802 
	C437.357239,301.502228 448.893921,307.941010 460.381989,314.465363 
	C466.420868,317.894989 472.374603,321.474487 478.658264,325.200073 
	C473.888092,328.937622 468.994751,332.739990 463.726807,335.922333 
	C455.011780,341.187134 446.076355,346.089996 437.190277,351.067657 
	C433.528503,353.118896 429.753998,354.968903 425.678284,356.912781 
	C425.340057,336.507355 425.354340,316.099518 425.604675,295.359802 
z"/>
<path fill="#2A2561" opacity="1.000000" stroke="none" 
	d="
M618.061523,343.081177 
	C617.988525,363.304108 617.915588,383.527069 617.781128,404.179810 
	C615.102783,403.382111 612.485962,402.154572 609.358887,400.553467 
	C598.029602,394.040588 587.210510,387.901215 576.391479,381.761871 
	C576.239685,381.669800 576.087830,381.577698 575.521301,381.173157 
	C574.217529,380.453796 573.328491,380.046875 572.439392,379.639984 
	C572.439392,379.639984 572.341248,379.603058 572.197205,379.387939 
	C571.857361,378.942596 571.611023,378.799347 571.314087,378.742981 
	C571.002502,378.500153 570.690979,378.257294 569.965332,377.709839 
	C569.063049,377.257996 568.574707,377.110748 568.086426,376.963501 
	C568.086426,376.963501 567.730469,376.784851 567.333252,376.494995 
	C565.810303,375.233032 564.684692,374.260956 563.559021,373.288818 
	C581.403320,363.004761 599.247620,352.720673 617.450134,342.572815 
	C617.808350,342.709076 618.061523,343.081177 618.061523,343.081177 
z"/>
<path fill="#EE572B" opacity="1.000000" stroke="none" 
	d="
M534.554565,611.437805 
	C534.942322,612.023315 534.970154,612.596252 534.683716,613.725830 
	C533.238403,615.073303 532.107422,615.864014 529.788147,617.485474 
	C532.398010,618.255920 533.669617,618.631287 534.941284,619.006714 
	C534.958679,620.072937 534.976074,621.139160 534.570496,622.601135 
	C532.627686,622.996887 531.107910,622.996887 530.204102,622.996887 
	C530.943420,625.765015 531.913574,627.743530 531.931824,629.730774 
	C532.063965,644.086548 532.003540,658.444153 531.692139,672.762573 
	C530.595398,672.468323 529.810669,672.212708 529.013550,671.979126 
	C529.001221,672.001038 529.040955,671.969421 528.905029,671.657837 
	C516.177002,664.237244 503.584900,657.128235 490.995850,650.008423 
	C490.998871,649.997559 490.979004,650.009766 490.818695,649.715515 
	C488.464844,648.255615 486.271301,647.090027 484.052917,645.963562 
	C484.028107,646.002686 484.062042,645.919067 483.918762,645.655640 
	C482.830078,644.672363 481.884644,643.952515 480.939240,643.232605 
	C481.025208,642.574219 480.879730,641.526489 481.232422,641.316772 
	C485.453888,638.807739 489.775574,636.467957 494.015472,633.988892 
	C496.552032,632.505676 498.890564,630.661804 501.491425,629.314636 
	C510.638458,624.576477 519.873840,620.009033 529.039429,615.306091 
	C530.346497,614.635437 531.453552,613.574951 532.795898,612.388794 
	C533.357300,611.863403 533.775940,611.644287 534.554565,611.437805 
z"/>
<path fill="#FDEEDF" opacity="1.000000" stroke="none" 
	d="
M619.691895,563.039551 
	C621.800232,564.381409 623.604126,565.714600 625.408020,567.047729 
	C625.114807,567.444519 624.821594,567.841309 624.528381,568.238098 
	C623.057922,567.473938 621.587524,566.709717 619.685608,565.721313 
	C618.757996,570.054688 618.291748,573.539673 620.938477,577.005310 
	C622.115845,578.546875 622.900574,580.829895 622.886475,582.769287 
	C622.784241,596.856201 622.241150,610.943359 622.382812,625.024841 
	C622.402283,626.960266 625.076355,629.461670 627.127625,630.682312 
	C636.542725,636.285034 646.079041,641.704651 655.769470,646.815063 
	C660.101990,649.099854 664.967529,650.352539 669.450867,652.383484 
	C671.148376,653.152344 672.450806,654.793640 673.984375,656.368408 
	C666.202881,653.281006 658.124817,650.325684 650.596497,646.333679 
	C639.771118,640.593140 629.345825,634.098145 618.407715,627.833130 
	C617.800354,625.460693 617.317566,623.181519 617.304260,620.899658 
	C617.197693,602.704224 617.180237,584.508179 617.097778,565.776123 
	C617.835876,564.503479 618.611694,563.767151 619.691895,563.039551 
z"/>
<path fill="#90B15C" opacity="1.000000" stroke="none" 
	d="
M348.809753,525.599854 
	C347.476074,523.116699 346.305939,520.211731 344.980896,517.379211 
	C344.052765,515.395081 345.939972,511.418152 341.187653,512.340820 
	C341.488220,509.040344 342.150513,506.066071 341.899231,503.171112 
	C341.697052,500.842163 340.306396,498.634338 339.605774,496.323425 
	C339.232056,495.090668 339.007111,493.746674 339.051270,492.464447 
	C339.279358,485.842529 340.090698,479.193024 339.656982,472.621887 
	C339.505768,470.331329 336.794250,467.541595 334.530518,466.174805 
	C324.970764,460.402924 315.175323,455.015167 305.374420,449.654480 
	C303.532928,448.647278 301.272522,448.405975 298.764801,447.684479 
	C298.703217,447.431702 298.790344,445.675018 298.093597,445.271301 
	C293.459747,442.586609 288.599762,440.293304 283.952820,437.629395 
	C282.811005,436.974854 282.186310,435.418243 281.769470,433.989014 
	C284.496765,434.563690 286.778412,435.425659 289.228638,436.562225 
	C290.273529,437.580383 291.061676,438.475861 292.039948,439.043854 
	C301.180206,444.350708 310.290314,449.714844 319.536011,454.833099 
	C327.178040,459.063599 334.991455,462.984436 342.728912,467.042511 
	C342.916962,467.310272 343.138702,467.546387 343.613007,467.855713 
	C342.546997,481.510284 342.508240,495.038055 345.032959,508.458374 
	C346.091583,514.085693 347.602112,519.627991 348.809753,525.599854 
z"/>
<path fill="#B96D5D" opacity="1.000000" stroke="none" 
	d="
M563.237183,373.264404 
	C564.684692,374.260956 565.810303,375.233032 567.136353,376.465393 
	C560.959473,374.270599 556.771545,379.351898 552.146545,381.733398 
	C539.906311,388.036072 528.055176,395.113068 516.191772,402.123291 
	C505.735260,408.302216 495.531525,414.908295 485.095398,421.122986 
	C480.341400,423.953979 475.296173,426.295929 469.534882,429.302277 
	C471.158264,429.740204 471.737305,429.896393 472.617493,430.133423 
	C468.582977,431.350952 464.247314,432.487640 459.304871,433.746582 
	C458.317291,433.922852 457.936554,433.976868 457.555786,434.030884 
	C470.223083,426.544769 482.854950,418.997772 495.566437,411.587494 
	C512.461609,401.738190 529.397949,391.959106 546.361511,382.228027 
	C551.806396,379.104645 557.393433,376.228973 563.237183,373.264404 
z"/>
<path fill="#90B15C" opacity="1.000000" stroke="none" 
	d="
M377.892548,583.189819 
	C376.854462,580.546082 376.542694,577.095886 374.654877,575.395630 
	C365.620422,567.258850 361.455688,555.869568 354.742615,546.219604 
	C351.294495,541.263062 350.438965,534.503052 348.637939,528.323608 
	C351.422943,533.183228 354.271393,538.154602 356.489136,543.393005 
	C364.794250,563.010437 378.999390,577.915161 394.601501,591.740906 
	C396.302765,593.248474 398.144745,594.597229 399.918640,596.335449 
	C398.931458,596.661316 397.947083,596.671326 396.485413,596.298584 
	C394.715576,594.981812 393.434875,594.030823 392.128235,593.116943 
	C387.387726,589.801147 382.638489,586.497864 377.892548,583.189819 
z"/>
<path fill="#C64A57" opacity="1.000000" stroke="none" 
	d="
M534.156494,493.441895 
	C534.566040,498.715302 534.781738,504.317535 534.982788,509.920349 
	C535.052551,511.865387 534.515686,514.194885 538.106934,514.046509 
	C533.386719,517.205200 528.334961,520.398804 523.184631,523.424683 
	C520.519958,524.990295 517.680481,526.258423 514.585815,527.599976 
	C514.251587,527.539062 514.320984,527.404480 514.618286,527.257324 
	C516.863770,525.046631 518.811890,522.983093 520.760010,520.919495 
	C520.760010,520.919495 520.914368,520.916443 521.177612,520.732056 
	C521.596802,520.031250 521.752808,519.514832 521.908813,518.998352 
	C528.477417,511.808289 532.485596,503.395447 534.156494,493.441895 
z"/>
<path fill="#CFF6FD" opacity="1.000000" stroke="none" 
	d="
M737.562500,383.158325 
	C737.836670,379.158722 739.069397,374.919830 738.864014,370.751831 
	C738.481567,362.991913 737.261719,355.273254 736.639404,347.287476 
	C742.254517,358.870636 741.878967,370.861084 737.562500,383.158325 
z"/>
<path fill="#CFF6FD" opacity="1.000000" stroke="none" 
	d="
M704.808899,314.674469 
	C695.591309,314.202545 686.134216,313.455383 676.367676,312.444397 
	C683.829895,312.378876 691.605713,312.488373 699.370239,312.843292 
	C701.123352,312.923370 702.837402,313.857971 704.808899,314.674469 
z"/>
<path fill="#CFF6FD" opacity="1.000000" stroke="none" 
	d="
M672.561035,312.924286 
	C669.795349,314.842285 666.742126,316.971863 663.428467,318.557007 
	C660.988647,319.724152 658.208313,320.179596 655.177429,320.899658 
	C660.570618,318.198853 666.366150,315.550598 672.561035,312.924286 
z"/>
<path fill="#CFF6FD" opacity="1.000000" stroke="none" 
	d="
M677.364502,433.961914 
	C679.780518,429.250977 683.857422,426.567230 689.773926,426.128235 
	C686.026978,428.721497 681.874084,431.328156 677.364502,433.961914 
z"/>
<path fill="#CFF6FD" opacity="1.000000" stroke="none" 
	d="
M736.006470,344.600098 
	C731.257263,343.554230 731.233948,339.192871 730.152100,335.110168 
	C732.122070,337.884491 734.060852,341.059235 736.006470,344.600098 
z"/>
<path fill="#CFF6FD" opacity="1.000000" stroke="none" 
	d="
M722.844971,325.696838 
	C719.333801,325.354492 715.132141,325.590454 714.241760,320.132507 
	C717.024353,321.631805 719.872498,323.507721 722.844971,325.696838 
z"/>
<path fill="#CFF6FD" opacity="1.000000" stroke="none" 
	d="
M457.257751,434.272705 
	C457.936554,433.976868 458.317291,433.922852 458.991455,433.936371 
	C457.025604,437.467010 454.230316,440.076599 449.346130,439.972321 
	C451.618042,438.137787 454.288879,436.326141 457.257751,434.272705 
z"/>
<path fill="#CFF6FD" opacity="1.000000" stroke="none" 
	d="
M445.695435,442.093750 
	C445.763580,445.664459 444.269806,448.143280 440.087128,448.016479 
	C441.730682,445.868866 443.546478,444.002716 445.695435,442.093750 
z"/>
<path fill="#CFF6FD" opacity="1.000000" stroke="none" 
	d="
M646.673645,325.108154 
	C645.939331,329.661041 641.794556,329.669342 638.053589,330.812622 
	C640.548523,328.881073 643.435730,326.999298 646.673645,325.108154 
z"/>
<path fill="#CFF6FD" opacity="1.000000" stroke="none" 
	d="
M714.104614,319.440338 
	C711.175598,318.401459 708.135498,317.042725 705.070557,315.312225 
	C708.028320,316.333801 711.010986,317.727142 714.104614,319.440338 
z"/>
<path fill="#C64A57" opacity="1.000000" stroke="none" 
	d="
M540.406860,513.287964 
	C542.117859,511.810852 544.107971,510.489136 546.411865,509.193054 
	C544.712463,510.626862 542.699158,512.035095 540.406860,513.287964 
z"/>
<path fill="#C64A57" opacity="1.000000" stroke="none" 
	d="
M561.420105,501.211792 
	C562.821716,499.749542 564.484070,498.465637 566.442993,497.225891 
	C565.053345,498.643433 563.367065,500.016785 561.420105,501.211792 
z"/>
<path fill="#CFF6FD" opacity="1.000000" stroke="none" 
	d="
M653.683960,321.122314 
	C652.192566,322.388702 650.362671,323.666473 648.134399,324.881348 
	C649.605774,323.590240 651.475525,322.362000 653.683960,321.122314 
z"/>
<path fill="#CFF6FD" opacity="1.000000" stroke="none" 
	d="
M636.657104,331.101501 
	C635.147644,332.351990 633.289978,333.616547 631.045044,334.829865 
	C632.541504,333.557587 634.425232,332.336578 636.657104,331.101501 
z"/>
<path fill="#CFF6FD" opacity="1.000000" stroke="none" 
	d="
M671.938171,436.439880 
	C673.082947,435.513550 674.359680,434.822632 676.007690,434.196045 
	C675.796143,435.233459 675.213440,436.206543 674.440796,437.466064 
	C673.523865,437.393402 672.796997,437.034302 671.938171,436.439880 
z"/>
<path fill="#CFF6FD" opacity="1.000000" stroke="none" 
	d="
M629.675293,335.069153 
	C628.591736,336.040405 627.171204,337.031067 625.386963,338.013611 
	C626.461670,337.033142 627.900024,336.060883 629.675293,335.069153 
z"/>
<path fill="#CFF6FD" opacity="1.000000" stroke="none" 
	d="
M624.682373,338.034851 
	C624.170471,338.666351 623.337952,339.310760 622.134949,339.894653 
	C622.630188,339.238708 623.495972,338.643250 624.682373,338.034851 
z"/>
<path fill="#CFF6FD" opacity="1.000000" stroke="none" 
	d="
M448.638550,439.981903 
	C448.219788,440.634979 447.487030,441.330109 446.401306,442.027466 
	C446.807037,441.361084 447.565796,440.692535 448.638550,439.981903 
z"/>
<path fill="#CFF6FD" opacity="1.000000" stroke="none" 
	d="
M618.374329,343.012207 
	C618.061523,343.081177 617.808350,342.709076 617.765137,342.489288 
	C618.257385,341.868927 618.792847,341.468353 619.669922,341.043762 
	C619.570007,341.660919 619.128601,342.302063 618.374329,343.012207 
z"/>
<path fill="#90B15C" opacity="1.000000" stroke="none" 
	d="
M402.777222,598.464417 
	C402.242218,598.464050 401.655670,598.220947 401.052155,597.717407 
	C401.598694,597.711853 402.162170,597.966797 402.777222,598.464417 
z"/>
<path fill="#F39426" opacity="1.000000" stroke="none" 
	d="
M592.867859,485.469482 
	C593.189514,485.424835 593.520752,485.622070 593.903931,486.014801 
	C593.596375,486.043976 593.236938,485.877686 592.867859,485.469482 
z"/>
<path fill="#CFF6FD" opacity="1.000000" stroke="none" 
	d="
M724.838989,327.797852 
	C724.566040,327.958130 724.315674,327.775208 724.064087,327.263977 
	C724.339111,327.080383 724.605347,327.253387 724.838989,327.797852 
z"/>
<path fill="#EE572B" opacity="1.000000" stroke="none" 
	d="
M536.651611,610.068420 
	C536.692871,610.333801 536.446716,610.570374 535.939331,610.854614 
	C535.906738,610.614746 536.135498,610.327148 536.651611,610.068420 
z"/>
<path fill="#CFF6FD" opacity="1.000000" stroke="none" 
	d="
M723.901672,326.766052 
	C723.627686,326.942871 723.364197,326.766724 723.084412,326.257019 
	C723.277527,326.194366 723.558838,326.357574 723.901672,326.766052 
z"/>
<path fill="#C64A57" opacity="1.000000" stroke="none" 
	d="
M513.350098,528.343262 
	C513.290771,528.319092 513.428101,528.214661 513.443176,528.176819 
	C513.458252,528.138977 513.409424,528.367432 513.350098,528.343262 
z"/>
<path fill="#CFF6FD" opacity="1.000000" stroke="none" 
	d="
M728.946411,332.739136 
	C728.730286,332.782227 728.459351,332.567871 728.144043,332.089508 
	C728.363647,332.044250 728.627563,332.263000 728.946411,332.739136 
z"/>
<path fill="#CFF6FD" opacity="1.000000" stroke="none" 
	d="
M729.807861,333.774231 
	C729.521606,333.927032 729.284424,333.738129 729.065369,333.223724 
	C729.355103,333.040955 729.612854,333.219086 729.807861,333.774231 
z"/>
<path fill="#C64A57" opacity="1.000000" stroke="none" 
	d="
M553.343384,505.690857 
	C553.213379,505.413513 553.318726,505.279541 553.632202,505.212158 
	C553.889221,505.503693 553.802124,505.688873 553.343384,505.690857 
z"/>
<path fill="#CFF6FD" opacity="1.000000" stroke="none" 
	d="
M620.775024,340.182983 
	C620.932434,340.462158 620.749390,340.704468 620.243103,340.940308 
	C620.055298,340.657898 620.226868,340.395325 620.775024,340.182983 
z"/>
<path fill="#FDEEDF" opacity="1.000000" stroke="none" 
	d="
M737.157043,621.694214 
	C736.858765,620.444885 736.537659,618.875977 736.764709,617.390808 
	C738.273682,607.521240 740.081909,597.380188 735.978882,587.993286 
	C731.307617,577.306152 726.512451,566.492249 715.202148,560.325745 
	C705.960449,555.286987 697.338318,549.116211 688.396851,543.518616 
	C686.532043,542.351196 682.955322,543.683105 683.025330,539.362366 
	C696.116699,546.757263 710.051392,553.426331 722.079468,562.596313 
	C739.191528,575.642090 744.726257,600.418335 737.157043,621.694214 
z"/>
<path fill="#FDEEDF" opacity="1.000000" stroke="none" 
	d="
M676.372437,657.150208 
	C680.062500,656.635315 684.140747,656.556396 688.137390,655.944458 
	C691.235718,655.469971 694.229004,654.318726 697.274414,653.488037 
	C700.865417,652.508606 704.714722,652.063354 707.991089,650.450256 
	C711.893616,648.528931 715.241150,645.509155 718.962341,643.177917 
	C720.562378,642.175537 722.497681,641.708435 724.673157,641.023804 
	C711.918457,655.278076 695.495728,659.796936 676.372437,657.150208 
z"/>
<path fill="#E9611D" opacity="1.000000" stroke="none" 
	d="
M621.796692,724.109436 
	C620.523254,723.934387 619.518921,723.574463 618.236267,723.023193 
	C617.961792,693.198242 617.965576,663.564758 617.978516,633.461670 
	C618.325684,634.878357 618.952881,636.763794 618.958008,638.651001 
	C619.024475,662.920959 618.993042,687.191162 619.010803,711.461304 
	C619.013977,715.851501 618.111389,720.491150 621.796692,724.109436 
z"/>
<path fill="#B96D5D" opacity="1.000000" stroke="none" 
	d="
M576.301880,382.123322 
	C587.210510,387.901215 598.029602,394.040588 609.023193,400.466125 
	C605.202515,398.978271 601.103760,397.402802 597.235046,395.386108 
	C590.560974,391.906952 584.014709,388.180237 577.464172,384.470215 
	C576.864441,384.130585 576.621155,383.161530 576.301880,382.123322 
z"/>
<path fill="#FDEEDF" opacity="1.000000" stroke="none" 
	d="
M725.365967,640.948242 
	C723.816833,635.654297 730.127075,633.852905 730.731689,629.150024 
	C730.999207,627.069397 732.772888,625.182312 733.882690,623.171326 
	C734.177795,623.296875 734.896606,623.602661 735.899536,623.907959 
	C732.683411,629.549622 729.183167,635.191833 725.365967,640.948242 
z"/>
<path fill="#FDEEDF" opacity="1.000000" stroke="none" 
	d="
M682.871826,538.665527 
	C680.354675,539.421387 677.699036,540.053345 675.010925,540.256958 
	C673.694946,540.356567 672.318665,539.659973 671.586548,539.477478 
	C672.296265,537.027954 672.785522,535.339478 673.151611,533.316040 
	C676.258972,534.775757 679.489441,536.570496 682.871826,538.665527 
z"/>
<path fill="#B96D5D" opacity="1.000000" stroke="none" 
	d="
M572.428955,380.008972 
	C573.328491,380.046875 574.217529,380.453796 575.262939,381.108154 
	C574.419006,381.029724 573.418762,380.703857 572.428955,380.008972 
z"/>
<path fill="#B96D5D" opacity="1.000000" stroke="none" 
	d="
M568.196777,377.214874 
	C568.574707,377.110748 569.063049,377.257996 569.677673,377.628113 
	C569.305054,377.722748 568.806030,377.594482 568.196777,377.214874 
z"/>
<path fill="#B96D5D" opacity="1.000000" stroke="none" 
	d="
M571.326233,379.004517 
	C571.611023,378.799347 571.857361,378.942596 572.150940,379.363220 
	C571.945251,379.457794 571.641846,379.361938 571.326233,379.004517 
z"/>
<path fill="#FEFEFC" opacity="1.000000" stroke="none" 
	d="
M289.060089,436.287628 
	C286.778412,435.425659 284.496765,434.563690 281.872528,433.629211 
	C281.529968,433.556732 281.397461,433.580780 281.233093,433.382812 
	C280.736420,433.063660 280.404175,432.942444 280.071899,432.821228 
	C269.626251,426.639191 259.322449,420.200653 248.704788,414.329773 
	C227.957382,402.857697 216.350357,379.302155 220.502258,356.297333 
	C224.672424,333.191437 243.758469,315.290497 267.222870,311.764648 
	C282.921387,309.405731 296.223785,314.784637 309.193756,322.669678 
	C319.842896,329.143707 330.870880,334.994507 342.055176,341.192139 
	C342.461090,361.683350 342.542725,382.104004 342.545898,402.942017 
	C342.467407,403.359406 342.410461,403.624695 342.410461,403.624695 
	C342.410461,403.624695 342.606110,403.560760 342.606110,403.560760 
	C342.590485,404.008209 342.574829,404.455658 342.183411,405.343506 
	C324.225098,415.951813 306.642578,426.119720 289.060089,436.287628 
z"/>
<path fill="#E83E51" opacity="1.000000" stroke="none" 
	d="
M289.228638,436.562225 
	C306.642578,426.119720 324.225098,415.951813 342.127869,405.675110 
	C342.640686,412.997681 342.960815,420.428375 342.997406,427.860535 
	C343.060120,440.607849 342.945709,453.356018 342.817291,466.573181 
	C334.991455,462.984436 327.178040,459.063599 319.536011,454.833099 
	C310.290314,449.714844 301.180206,444.350708 292.039948,439.043854 
	C291.061676,438.475861 290.273529,437.580383 289.228638,436.562225 
z"/>
<path fill="#E83E51" opacity="1.000000" stroke="none" 
	d="
M342.656921,403.546814 
	C342.606110,403.560760 342.410461,403.624695 342.410461,403.624695 
	C342.410461,403.624695 342.467407,403.359406 342.534027,403.443298 
	C342.600647,403.527191 342.707703,403.532867 342.656921,403.546814 
z"/>
<path fill="#FEFDFC" opacity="1.000000" stroke="none" 
	d="
M285.448975,533.528381 
	C286.859833,533.190552 287.999725,533.103577 289.481995,533.003540 
	C304.202209,541.483032 318.579590,549.976257 332.958252,558.467468 
	C336.090698,560.317261 339.227570,562.159668 342.611511,564.616455 
	C342.835876,583.355408 342.792999,601.483459 342.810364,619.611511 
	C342.812408,621.744751 343.145660,623.877747 343.325348,626.010864 
	C335.966309,630.524719 328.705292,635.209167 321.222961,639.508423 
	C312.289154,644.641663 303.531006,650.331482 294.059509,654.233215 
	C258.807312,668.755249 218.627380,640.506470 219.885025,602.395447 
	C220.564316,581.810852 229.999756,566.209290 247.652420,555.680176 
	C260.090332,548.261475 272.664612,541.071350 285.448975,533.528381 
z"/>
<path fill="#FEFEFE" opacity="1.000000" stroke="none" 
	d="
M534.688049,689.059937 
	C534.749634,699.404663 534.811279,709.749329 534.424377,720.660828 
	C533.694580,721.621338 533.183594,722.005371 533.166504,722.410278 
	C532.910522,728.485107 533.001038,734.547241 529.279236,739.946350 
	C527.291260,742.830200 525.617004,746.064331 524.481689,749.373840 
	C522.152893,756.162048 516.803894,760.810303 511.503754,764.236816 
	C505.022430,768.427002 497.917328,771.866882 489.796692,773.710693 
	C478.640320,776.243774 468.980438,773.709351 459.040436,770.039795 
	C457.524780,769.480164 455.396667,769.064880 454.755249,767.912842 
	C451.920746,762.821655 446.166504,763.489990 442.090912,760.962158 
	C441.794617,760.778015 441.498352,760.593872 441.124359,759.779846 
	C439.970612,756.138489 439.010651,753.077148 437.749329,750.145386 
	C437.360596,749.241821 436.117310,748.725891 435.323883,747.970947 
	C434.535553,747.220886 433.506866,746.519409 433.128876,745.577698 
	C431.555237,741.657227 429.636780,737.753235 428.898651,733.653442 
	C428.160095,729.551331 428.382782,725.197937 428.743011,721.002686 
	C428.996796,718.046814 430.605652,715.206909 430.856934,712.251343 
	C431.235138,707.802124 431.263702,703.268982 430.861603,698.823975 
	C430.516602,695.010376 429.359253,691.270203 428.561157,687.497559 
	C428.447876,684.955261 430.591980,682.228088 430.744507,679.393738 
	C430.981049,674.997925 432.559814,672.376038 436.529877,670.763184 
	C437.264496,670.464661 437.519470,668.985596 437.995819,668.051392 
	C438.454895,667.722839 438.913971,667.394287 440.046082,667.032715 
	C447.075897,665.210266 453.701935,663.860229 456.974030,657.037598 
	C462.041473,654.035278 467.108887,651.033020 472.766815,647.942017 
	C473.583710,647.618958 473.810150,647.384644 474.036560,647.150330 
	C474.036560,647.150330 474.063934,647.019531 474.290253,647.000977 
	C474.733856,646.886414 474.882202,646.726501 474.961670,646.502686 
	C475.121307,646.382690 475.280975,646.262695 475.977539,646.344116 
	C479.030334,646.336670 481.546173,646.127869 484.062042,645.919067 
	C484.062042,645.919067 484.028107,646.002686 484.036438,646.348389 
	C486.356171,647.799316 488.667603,648.904541 490.979004,650.009766 
	C490.979004,650.009766 490.998871,649.997559 490.992126,650.384277 
	C492.502136,652.265381 493.787140,654.168701 495.576233,655.182556 
	C502.813629,659.284058 510.153717,663.214539 517.563599,666.997070 
	C521.269714,668.888977 525.207825,670.326416 529.040955,671.969421 
	C529.040955,671.969421 529.001221,672.001038 529.047852,672.337280 
	C530.343506,673.133362 531.592529,673.593201 532.895020,674.039673 
	C532.948486,674.026306 532.959656,674.136047 532.960083,674.531616 
	C532.916382,676.055969 532.696960,677.210754 532.860229,678.308655 
	C533.394531,681.903503 534.068054,685.477783 534.688049,689.059937 
z"/>
<path fill="#F49423" opacity="1.000000" stroke="none" 
	d="
M343.673157,626.001526 
	C343.145660,623.877747 342.812408,621.744751 342.810364,619.611511 
	C342.792999,601.483459 342.835876,583.355408 342.918335,564.800537 
	C347.651001,566.760803 352.389832,569.032104 356.986115,571.562317 
	C363.768707,575.296021 370.449860,579.213989 377.533386,583.121704 
	C382.638489,586.497864 387.387726,589.801147 392.128235,593.116943 
	C393.434875,594.030823 394.715576,594.981812 396.116089,596.216919 
	C379.610474,606.102478 363.000244,615.692810 346.371582,625.251160 
	C345.675934,625.651062 344.808411,625.751953 343.673157,626.001526 
z"/>
<path fill="#FDECD2" opacity="1.000000" stroke="none" 
	d="
M437.638611,668.057495 
	C437.519470,668.985596 437.264496,670.464661 436.529877,670.763184 
	C432.559814,672.376038 430.981049,674.997925 430.744507,679.393738 
	C430.591980,682.228088 428.447876,684.955261 428.561157,687.497559 
	C429.359253,691.270203 430.516602,695.010376 430.861603,698.823975 
	C431.263702,703.268982 431.235138,707.802124 430.856934,712.251343 
	C430.605652,715.206909 428.996796,718.046814 428.743011,721.002686 
	C428.382782,725.197937 428.160095,729.551331 428.898651,733.653442 
	C429.636780,737.753235 431.555237,741.657227 433.128876,745.577698 
	C433.506866,746.519409 434.535553,747.220886 435.323883,747.970947 
	C436.117310,748.725891 437.360596,749.241821 437.749329,750.145386 
	C439.010651,753.077148 439.970612,756.138489 441.045502,759.522339 
	C430.569397,750.904480 425.967072,738.958557 425.386688,725.697266 
	C424.676453,709.468811 425.054993,693.192627 424.859802,676.480103 
	C428.931671,673.369934 433.106506,670.716736 437.638611,668.057495 
z"/>
<path fill="#FDECD2" opacity="1.000000" stroke="none" 
	d="
M456.622711,657.062622 
	C453.701935,663.860229 447.075897,665.210266 440.322906,666.971252 
	C445.374908,663.657776 450.823151,660.372681 456.622711,657.062622 
z"/>
<path fill="#FDECD2" opacity="1.000000" stroke="none" 
	d="
M483.918762,645.655640 
	C481.546173,646.127869 479.030334,646.336670 476.268616,646.273193 
	C477.449982,645.110962 478.877167,644.221130 480.621826,643.281921 
	C481.884644,643.952515 482.830078,644.672363 483.918762,645.655640 
z"/>
<path fill="#FDECD2" opacity="1.000000" stroke="none" 
	d="
M474.773193,646.482666 
	C474.882202,646.726501 474.733856,646.886414 474.353882,647.021362 
	C474.180939,646.767822 474.312134,646.568604 474.773193,646.482666 
z"/>
<path fill="#FDECD2" opacity="1.000000" stroke="none" 
	d="
M473.780640,647.160156 
	C473.810150,647.384644 473.583710,647.618958 473.108582,647.881775 
	C473.081482,647.663513 473.303070,647.416748 473.780640,647.160156 
z"/>
<path fill="#90B15C" opacity="1.000000" stroke="none" 
	d="
M280.174408,433.084564 
	C280.404175,432.942444 280.736420,433.063660 281.184326,433.429291 
	C280.958954,433.565125 280.617920,433.456512 280.174408,433.084564 
z"/>
<path fill="#FDECD2" opacity="1.000000" stroke="none" 
	d="
M442.197601,761.276855 
	C446.166504,763.489990 451.920746,762.821655 454.755249,767.912842 
	C455.396667,769.064880 457.524780,769.480164 459.040436,770.039795 
	C468.980438,773.709351 478.640320,776.243774 489.796692,773.710693 
	C497.917328,771.866882 505.022430,768.427002 511.503754,764.236816 
	C516.803894,760.810303 522.152893,756.162048 524.481689,749.373840 
	C525.617004,746.064331 527.291260,742.830200 529.279236,739.946350 
	C533.001038,734.547241 532.910522,728.485107 533.166504,722.410278 
	C533.183594,722.005371 533.694580,721.621338 534.341003,721.123535 
	C535.854553,730.933472 533.273376,740.097778 528.342651,748.492249 
	C515.225098,770.824524 492.904083,780.833618 467.659943,775.600830 
	C457.900848,773.577942 449.212646,769.053955 442.197601,761.276855 
z"/>
<path fill="#E9611D" opacity="1.000000" stroke="none" 
	d="
M532.004150,672.801147 
	C532.003540,658.444153 532.063965,644.086548 531.931824,629.730774 
	C531.913574,627.743530 530.943420,625.765015 530.204102,622.996887 
	C531.107910,622.996887 532.627686,622.996887 534.553162,623.000732 
	C534.995300,639.812317 535.031799,656.620056 534.729614,673.861572 
	C533.913818,674.242310 533.436707,674.189148 532.959656,674.136047 
	C532.959656,674.136047 532.948486,674.026306 532.815979,673.797119 
	C532.457031,673.312378 532.230591,673.056763 532.004150,672.801147 
z"/>
<path fill="#FDECD2" opacity="1.000000" stroke="none" 
	d="
M532.960083,674.531616 
	C533.436707,674.189148 533.913818,674.242310 534.747864,674.356079 
	C535.062012,679.030640 535.019104,683.644531 534.832153,688.659180 
	C534.068054,685.477783 533.394531,681.903503 532.860229,678.308655 
	C532.696960,677.210754 532.916382,676.055969 532.960083,674.531616 
z"/>
<path fill="#E9611D" opacity="1.000000" stroke="none" 
	d="
M534.962769,618.591370 
	C533.669617,618.631287 532.398010,618.255920 529.788147,617.485474 
	C532.107422,615.864014 533.238403,615.073303 534.681763,614.154724 
	C534.990845,615.409912 534.987488,616.792969 534.962769,618.591370 
z"/>
<path fill="#FDEEDF" opacity="1.000000" stroke="none" 
	d="
M520.381348,520.931580 
	C518.811890,522.983093 516.863770,525.046631 514.597717,527.184509 
	C513.652344,522.856384 516.054382,521.199341 520.381348,520.931580 
z"/>
<path fill="#FDEEDF" opacity="1.000000" stroke="none" 
	d="
M521.678040,519.137695 
	C521.752808,519.514832 521.596802,520.031250 521.179749,520.654907 
	C521.094910,520.267151 521.271057,519.772095 521.678040,519.137695 
z"/>
<path fill="#C64A57" opacity="1.000000" stroke="none" 
	d="
M534.839722,488.574677 
	C534.867432,488.609985 534.889465,488.514038 534.904358,488.493408 
	C534.919250,488.472748 534.812012,488.539368 534.839722,488.574677 
z"/>
<path fill="#FDECD2" opacity="1.000000" stroke="none" 
	d="
M528.905029,671.657837 
	C525.207825,670.326416 521.269714,668.888977 517.563599,666.997070 
	C510.153717,663.214539 502.813629,659.284058 495.576233,655.182556 
	C493.787140,654.168701 492.502136,652.265381 490.989075,650.395081 
	C503.584900,657.128235 516.177002,664.237244 528.905029,671.657837 
z"/>
<path fill="#FDECD2" opacity="1.000000" stroke="none" 
	d="
M490.818726,649.715454 
	C488.667603,648.904541 486.356171,647.799316 484.061218,646.309265 
	C486.271301,647.090027 488.464844,648.255615 490.818726,649.715454 
z"/>
<path fill="#FDECD2" opacity="1.000000" stroke="none" 
	d="
M531.692139,672.762573 
	C532.230591,673.056763 532.457031,673.312378 532.762451,673.810547 
	C531.592529,673.593201 530.343506,673.133362 529.060181,672.315308 
	C529.810669,672.212708 530.595398,672.468323 531.692139,672.762573 
z"/>
</svg>